<svg xmlns="http://www.w3.org/2000/svg" viewBox="0 0 512 512">
  <rect width="512" height="512" rx="64" fill="#2C3E2D"/>
  <g transform="translate(128, 80)">
    <path d="M128 0 C160 40, 200 80, 200 160 C200 220, 170 260, 128 280 C86 260, 56 220, 56 160 C56 80, 96 40, 128 0Z" fill="#6B8F71" opacity="0.9"/>
    <path d="M128 40 C148 70, 176 100, 176 160 C176 200, 156 230, 128 245 C100 230, 80 200, 80 160 C80 100, 108 70, 128 40Z" fill="#A8C5AA" opacity="0.8"/>
    <line x1="128" y1="100" x2="128" y2="280" stroke="#2C3E2D" stroke-width="4" opacity="0.6"/>
    <line x1="128" y1="160" x2="100" y2="130" stroke="#2C3E2D" stroke-width="3" opacity="0.4"/>
    <line x1="128" y1="200" x2="156" y2="170" stroke="#2C3E2D" stroke-width="3" opacity="0.4"/>
  </g>
  <text x="256" y="420" text-anchor="middle" font-family="Arial, sans-serif" font-size="48" font-weight="bold" fill="#A8C5AA">PlantGuard</text>
</svg>
